<svg id="Ebene_1" data-name="Ebene 1" xmlns="http://www.w3.org/2000/svg" viewBox="0 0 316.52 109.97"><defs><style>.cls-1{fill:#189eff;}</style></defs><title>shopware_docs_logo</title><path class="cls-1" d="M87.69,97.93c-4.78-3.6-11.82-6.33-19.28-9.22-8.87-3.44-18.93-7.34-26.48-13.36C33.37,68.54,29.21,60,29.21,49.08A29.72,29.72,0,0,1,40.91,25C49.5,18.21,62.5,14.64,78.52,14.64a92.65,92.65,0,0,1,12.57.81.79.79,0,0,0,.82-.45.78.78,0,0,0-.19-.92,55,55,0,1,0-4,85.12.79.79,0,0,0,0-1.27Z"/><path class="cls-1" d="M109.74,49.9a.84.84,0,0,0-.28-.54C98,39.84,88.7,36,77.42,36c-6,0-10.63,1.2-13.71,3.58a10.16,10.16,0,0,0-4.08,8.31c0,9.44,11.54,13.75,24.91,18.73,6.89,2.57,14,5.22,20.55,8.85a.72.72,0,0,0,.38.1.65.65,0,0,0,.27,0,.8.8,0,0,0,.47-.45A55,55,0,0,0,110,55C110,53.36,109.89,51.65,109.74,49.9Z"/><path class="cls-1" d="M301.44,56.1c-4.71-1.88-8.48-3.77-8.48-6.91,0-2.2,2.51-4.08,6.59-4.08a26.09,26.09,0,0,1,10.06,2.2c.94.31,2.2.63,3.14-1l1.57-3.45a2.86,2.86,0,0,0-.94-3.46c-2.2-1.57-7.23-3.45-13.83-3.45-11.31,0-16,6.91-16,12.88,0,7.85,6,11.62,13.2,14.77,6.6,2.82,10,5,10,8.16,0,2.83-2.2,4.72-6.28,4.72-5.66,0-8.8-1.89-11.63-3.46a2.36,2.36,0,0,0-3.14.63l-2.2,4.4c-.63.94,0,1.88.94,2.51a26,26,0,0,0,15.4,4.72c10.37,0,16.65-6.29,16.65-13.83C316.52,63,309.92,59.56,301.44,56.1Z"/><path class="cls-1" d="M225.48,50.54a21.22,21.22,0,0,0-4.39-7.85,18.82,18.82,0,0,0-6.92-5,23.94,23.94,0,0,0-9.42-1.89,23,23,0,0,0-9.43,1.89,21.75,21.75,0,0,0-6.91,5,21.1,21.1,0,0,0-4.4,7.85,33.77,33.77,0,0,0-1.57,10.05A32.23,32.23,0,0,0,184,70.65a21.18,21.18,0,0,0,4.4,7.85,18.7,18.7,0,0,0,6.91,5,24,24,0,0,0,9.43,1.89,22.87,22.87,0,0,0,9.42-1.89,21.79,21.79,0,0,0,6.92-5,21.3,21.3,0,0,0,4.39-7.85,25.94,25.94,0,0,0,1.58-10.06A33.44,33.44,0,0,0,225.48,50.54Zm-21,26.39c-8.48,0-12.88-7.22-12.88-16s4.4-16,12.88-16,12.89,7.23,12.89,16S212.92,76.93,204.43,76.93Z"/><path class="cls-1" d="M258,36a20.73,20.73,0,0,1,17.19,8.18,2.33,2.33,0,0,1-.41,3.38l-3.68,3.37c-1.33,1.23-2.25.31-3.07-.51-2.15-2.35-5.93-4.7-9.72-4.7-8.08,0-14.32,6.54-14.32,14.93s6.14,15.05,14,15.05c6.14,0,8.6-3.48,11.16-5.84a2.17,2.17,0,0,1,3.17-.2l3.17,2.56c1.13,1,1.64,2.15.82,3.37a21.57,21.57,0,0,1-18.42,9.83c-13.2,0-24.15-10.44-24.15-24.66A24.55,24.55,0,0,1,258,36Z"/><path class="cls-1" d="M132.42,62.75c.56,16,7.25,22.67,22.65,22.67A68.8,68.8,0,0,0,173,82.63c1.6-.69,2.78-1.51,2.78-2.63V20.21A2.25,2.25,0,0,0,173.52,18h-5.11A2.19,2.19,0,0,0,166,20.21V38a85.83,85.83,0,0,0-14.82-.8c-10.87.34-18.17,7.3-18.78,20.63C132.29,59.69,132.42,62.75,132.42,62.75Zm9.82-4.86c.21-9,2.84-12.1,10.46-12.52,3.76-.21,12.66.84,12.66.84.37.12.62.27.62.62V74.61a.6.6,0,0,1-.49.55,35.4,35.4,0,0,1-10.43,1.34c-9.28,0-12.55-1.36-12.85-13.1C142.21,61.85,142.2,59.68,142.24,57.89Z"/></svg>
