<?xml version="1.0" encoding="utf-8"?>
<!-- Generator: Adobe Illustrator 24.1.0, SVG Export Plug-In . SVG Version: 6.00 Build 0)  -->
<svg version="1.1" id="Ebene_1" xmlns="http://www.w3.org/2000/svg" xmlns:xlink="http://www.w3.org/1999/xlink" x="0px" y="0px"
	 viewBox="-2 -2 673 114" style="enable-background:new 0 0 668.3 110;" xml:space="preserve">
<style type="text/css">
	.st0{fill:#189EFF;}
	.st1{fill:#607182;}
</style>
<g id="Ebene_2_1_">
</g>
<g id="Ebene_1_1_">
	<g>
		<g id="XMLID_106_">
			<g id="XMLID_131_">
				<path id="XMLID_132_" class="st0" d="M150.2,55.5c-4.7-2-8.5-3.9-8.5-6.9c0-2.1,2.4-4.2,6.5-4.2c3.7,0,6.8,0.9,10.1,2.3
					c0.9,0.4,2.3,0.5,3-0.9l1.6-3.2c0.6-1.2,0.1-2.6-1-3.5c-2.3-1.5-7.2-3.5-13.7-3.5c-11.4,0-16,6.9-16,12.8
					c0,7.7,6,11.6,13.2,14.8c6.5,2.9,10.1,5,10.1,8.1c0,2.6-2.2,4.6-6.2,4.6c-5.6,0-8.9-1.9-11.7-3.5c-1.2-0.7-2.5-0.4-3,0.6
					l-2.1,4.4c-0.5,1,0.1,1.9,0.8,2.4c2.6,1.8,8,4.8,15.4,4.8c10.5,0,16.8-6.4,16.8-13.7C165.3,62.3,158.8,59.2,150.2,55.5z"/>
			</g>
			<g id="XMLID_128_">
				<path id="XMLID_130_" class="st0" d="M87.8,98c-4.8-3.6-11.8-6.3-19.3-9.2c-8.9-3.4-18.9-7.3-26.5-13.3
					C33.4,68.6,29.3,60,29.3,49.1c0-9.7,4-18.1,11.7-24.1c8.6-6.8,21.6-10.3,37.7-10.3c4.4,0,8.6,0.3,12.6,0.8
					c0.3,0,0.7-0.1,0.8-0.4c0.1-0.3,0.1-0.7-0.2-0.9C81.6,5,68.6,0,55,0C40.4,0,26.5,5.7,16.1,16.1S0,40.4,0,55
					c0,14.7,5.7,28.6,16.1,38.9C26.5,104.3,40.4,110,55,110c11.9,0,23.1-3.7,32.8-10.8c0.2-0.1,0.3-0.4,0.3-0.6
					C88.1,98.4,88,98.2,87.8,98z"/>
				<path id="XMLID_129_" class="st0" d="M109.8,50c0-0.2-0.1-0.4-0.3-0.5C98,40,88.8,36.1,77.4,36.1c-6,0-10.6,1.2-13.7,3.6
					c-2.7,2.1-4.1,4.9-4.1,8.3c0,9.4,11.5,13.7,24.9,18.7c6.9,2.6,14,5.2,20.5,8.8c0.1,0.1,0.2,0.1,0.4,0.1c0.1,0,0.2,0,0.3,0
					c0.2-0.1,0.4-0.2,0.5-0.5c2.5-6.4,3.8-13.1,3.8-20C110.2,53.4,110,51.7,109.8,50z"/>
			</g>
			<path id="XMLID_125_" class="st0" d="M426.1,84.3c1.4-0.2,2.4-1.2,2.4-2.5V57.9c0-12.2-1.5-21.6-17.2-21.6c-9,0-16,2.4-16.9,2.8
				c-1.2,0.4-1.9,1.2-1.6,2.9l1,4c0.3,1.4,1.3,2.3,2.8,2c2.5-0.7,8.1-2.3,13.7-2.3c6.1,0,8.1,3.5,7.8,11.2c0,0-4.8-1.5-9.9-1.5
				c-12.6,0-19.6,6.8-19.6,15.8c0,10.2,6.5,13.6,15.7,13.6c7.5,0,15.3-0.1,18.5-0.3L426.1,84.3z M418,75.6
				c-1.5,2.4-6.8,1.8-11.3,1.7c-5.1-0.1-7.6-1.9-7.6-6.2c0-5.1,4.3-8.1,10.1-8.1c4.5,0,8.3,1.3,8.9,1.7v10.9H418z"/>
			<path id="XMLID_122_" class="st0" d="M506.3,35.7c3.1,0,5.6-2.5,5.6-5.6s-2.5-5.6-5.6-5.6s-5.6,2.5-5.6,5.6
				S503.2,35.7,506.3,35.7z M506.3,25.3c2.6,0,4.7,2.1,4.7,4.7s-2.1,4.7-4.7,4.7c-2.6,0-4.7-2.1-4.7-4.7
				C501.6,27.6,503.7,25.3,506.3,25.3z"/>
			<path id="XMLID_119_" class="st0" d="M504.4,33h0.5c0.1,0,0.2-0.1,0.2-0.2v-2h1.2l1.1,2.1c0,0.1,0.1,0.1,0.2,0.1h0.6
				c0.1,0,0.2-0.1,0.1-0.2l-1.1-2c0.7-0.3,1.2-0.9,1.2-1.6c0-1-0.8-1.7-1.8-1.7h-2.2c-0.1,0-0.2,0.1-0.2,0.2V33
				C504.2,32.9,504.3,33,504.4,33z M505.1,28.1h1.4c0.5,0,1,0.4,1,1s-0.5,1-1,1h-1.4V28.1z"/>
			<path id="XMLID_118_" class="st0" d="M196.6,35.7c-7.4,0-12.5,4.1-13.6,4.9v-21c0-1.1-1.1-2.2-2.2-2.2H175
				c-1.2,0-2.2,1.1-2.2,2.2v63c0,1.2,1,2.2,2.2,2.2h5.6c1.4,0,2.3-0.9,2.3-2.2V52.2c1-2,5.1-6.8,12.3-6.8c6.1,0,9.3,4.6,9.3,12.3
				v24.9c0,1.2,1,2.2,2.2,2.2h5.7c1.1,0,2.2-1,2.2-2.2V57.9C214.8,45.1,209.9,35.7,196.6,35.7z"/>
			<path id="XMLID_115_" class="st0" d="M315.8,58.4c-0.6-15.9-7.2-22.6-22.6-22.6c-7.4,0-16.2,2.2-17.5,2.8
				c-1.6,0.7-2.8,1.5-2.8,2.6v0.9v3.4v11V58v43c0,1.2,1,2.2,2.2,2.2h4.7c1.5,0,2.4-0.9,2.4-2.2V84.1c1.4,0.4,8.7,1,14.8,0.8
				c10.9-0.3,18.2-8.2,18.8-21.5C315.9,61.4,315.8,58.4,315.8,58.4z M306,63.2c-0.2,9-2.8,13-10.4,13.4c-3.8,0.2-12.6-0.8-12.6-0.8
				c-0.4-0.1-0.6-0.3-0.6-0.6V56.9V46.5c0-0.3,0.2-0.5,0.5-0.5c1-0.1,4.9-1.3,10.4-1.3c9.3,0,12.5,1.4,12.8,13.1
				C306,59.3,306,61.4,306,63.2z"/>
			<path id="XMLID_114_" class="st0" d="M383.2,36.7h-4.3c-1.2,0-2.9,0-3.6,1.4l-7.5,27h-0.2l-12.6-28.4c-0.2-0.6-0.9-1.1-2-1.1
				h-0.7c-0.9,0-1.6,0.5-1.9,1.1l-12.7,28.4h-0.2l-7.8-26.9c-0.2-0.9-1.2-1.4-2-1.4h-6.1c-1.6,0-2.3,1.2-1.6,2.6l13.7,44.3
				c0.2,0.7,0.9,1.2,1.9,1.2h0.6c1,0,1.6-0.5,1.8-1.1l14.4-32h0.2l14.3,32c0.3,0.6,1,1.1,2,1.1h0.4c1,0,1.9-0.5,2.1-1.2l13.4-44.3
				C385.7,38,384.8,36.7,383.2,36.7z"/>
			<path id="XMLID_113_" class="st0" d="M458.2,36.3c-0.2,0-0.5,0-0.7,0c-0.4,0-0.8,0-1.2,0c-2.4,0-4.8,0.1-7,0.2l0,0
				c-4.2,0.2-6.7,0.5-8.5,0.7c0,0-1.1,0.1-2.5,0.3c-0.9,0.1-1.5,0.5-1.9,1c-0.3,0.3-0.4,0.7-0.4,1.1v0.2v0.9v3.4v9.4v29.2
				c0,1.2,1,2.2,2.2,2.2h4.7c1.9,0,3.2-0.2,3.2-2.2V53.5l0,0v-6.7c0-0.3,0.4-0.6,0.7-0.8c1.1-0.7,3.9-1.2,9.4-1.2c0.5,0,0.9,0,1.3,0
				c1.3,0.1,3.3,0.5,3.9,0.9c1,0.5,2.2,0.2,2.8-1.1l2.4-4C468.3,37.5,462.6,36.3,458.2,36.3z"/>
			<path id="XMLID_110_" class="st0" d="M490.4,35.7c-14.1,0-23.4,11.3-23.4,24.5c0,13.4,9.2,24.6,23.5,24.6c7.8,0,14-2.8,17.4-5.8
				c1.4-1.2,1-2.1,0.2-3.1l-2.7-4.3c-0.8-1.2-1.7-0.9-2.7-0.2c-2.8,2-6.1,4-11.5,4c-8.2,0-13.9-6.5-14-12.8h32.5c1,0,2-0.8,2.1-2
				c0.1-0.8,0.2-2.4,0.2-3.2C511.8,44.8,502.6,35.7,490.4,35.7z M477.6,55c0.7-5.9,5.2-10.7,12.6-10.7c6.9,0,11.4,5,11.6,10.7H477.6
				z"/>
			<path id="XMLID_107_" class="st0" d="M264.6,50.2c-1.1-3-2.5-5.6-4.5-7.8c-1.9-2.2-4.2-3.8-6.8-5c-2.6-1.2-6.4-1.8-9.5-1.8
				s-6.9,0.6-9.5,1.8c-2.6,1.2-4.9,2.8-6.8,5c-1.9,2.2-3.4,4.7-4.5,7.8c-1.1,3-1.6,6.4-1.6,10c0,3.7,0.5,7.1,1.6,10.1
				c1.1,3,2.5,5.6,4.5,7.7c1.9,2.2,4.2,3.8,6.8,5c2.6,1.2,6.4,1.8,9.5,1.8s6.9-0.6,9.5-1.8c2.6-1.2,4.9-2.8,6.8-5s3.4-4.7,4.5-7.7
				c1.1-3,1.6-6.3,1.6-10.1C266.2,56.6,265.7,53.3,264.6,50.2z M243.5,76.7c-8.5,0-12.7-7.2-12.7-16s4.3-16,12.7-16
				c8.5,0,12.8,7.2,12.8,16S252.1,76.7,243.5,76.7z"/>
		</g>
		<g>
			<g>
				<path class="st1" d="M539.5,71c0-11.1,7.2-20,16.9-20c4.5,0,7.4,2.1,7.6,2.1l2.4-16.8c0.1-0.9,0.6-1.6,1.6-1.6h2.5
					c0.8,0,1.4,0.7,1.3,1.6l-6.6,47.5c-0.1,0.9-0.8,1.2-1.5,1.2H562c-0.7,0-1-0.5-1.1-1.2l-0.3-2.1c-0.1,0-4,4.1-9.9,4.1
					C544.2,85.7,539.5,79,539.5,71z M561,75.2l2.3-17.4c0,0-2.7-2.1-6.9-2.1c-6.2,0-11.4,6.8-11.4,14.7c0,5.3,2.4,10.5,7.2,10.5
					S561,75.2,561,75.2z"/>
				<path class="st1" d="M593.9,51c7,0,12.8,6.7,12.8,14.8c0,10.7-7.7,19.8-17.4,19.8c-7,0-12.8-6.8-12.8-15
					C576.4,60,584.2,51,593.9,51z M601.6,66.2c0-5.8-3.3-10.5-8.2-10.5c-6.2,0-11.9,6.4-11.9,14.5c0,5.9,3.2,10.7,8.2,10.7
					C595.9,80.9,601.6,74.3,601.6,66.2z"/>
				<path class="st1" d="M631.2,51c4.5,0,8.2,1.7,10.4,5.4c0.4,0.8,0.1,1.6-0.6,2.1l-1.5,1.3c-0.8,0.7-1.6,0.3-2.1-0.4
					c-1.3-2.1-3.4-3.7-6.3-3.7c-5.9,0-11.7,5.5-11.7,14.3c0,5.7,2.9,10.8,8.1,10.8c4.1,0,6.8-3.5,7.8-5c0.6-0.9,1.4-1.1,2.1-0.5
					l1.7,1.2c0.7,0.5,0.6,1.3,0.1,2.1c-2.1,3.7-6.6,6.9-12.4,6.9c-7.5,0-13-6.4-13-14.8C613.8,59.1,621.6,51,631.2,51z"/>
				<path class="st1" d="M646.2,82.1c-0.4-0.4-0.6-1.1-0.1-1.8l1.2-1.9c0.4-0.7,1.3-0.8,2-0.2c1.2,1,3.8,2.6,6.8,2.6
					c3.1,0,5.4-2.1,5.4-4.8c0-2.3-1.9-4-5.6-6.3c-3.4-2.1-7.2-4.4-7.2-9.1c0-4.2,3-9.7,10.9-9.7c4,0,6.7,1.4,8.1,2.4
					c0.6,0.6,0.8,1.4,0.3,2.4l-0.7,1.4c-0.6,1-1.5,0.9-2.2,0.4c-1.9-1.2-3.6-1.9-5.9-1.9c-3.6,0-5,2.3-5,4.3c0,2.4,2.2,3.7,4.7,5.3
					c4.3,2.7,8.1,5.2,8.1,10.2s-3.9,10-11.5,10C651.2,85.7,647.9,83.6,646.2,82.1z"/>
			</g>
		</g>
	</g>
</g>
</svg>
