<svg width="401" height="550" fill="none" xmlns="http://www.w3.org/2000/svg"><path d="M206.33 40.635A117.45 117.45 0 00125.926.303a117.411 117.411 0 00-85.34 28.403A117.69 117.69 0 00.303 109.207a117.73 117.73 0 0028.37 85.441L182.83 372.471l177.658-154.013a117.779 117.779 0 0040.219-80.61 117.82 117.82 0 00-28.493-85.473 117.539 117.539 0 00-80.513-40.267 117.501 117.501 0 00-85.371 28.527z" fill="#5ECE7B"/><path fill-rule="evenodd" clip-rule="evenodd" d="M125.926.303a117.45 117.45 0 0180.404 40.332 117.501 117.501 0 0185.371-28.527 117.539 117.539 0 0180.513 40.267 117.82 117.82 0 0126.073 102.317c.408-2.72.714-5.463.916-8.223 2.191-29.904-8.02-59.424-28.386-82.065-20.366-22.64-49.218-36.548-80.211-38.662-30.993-2.114-61.586 7.738-85.05 27.39-20.323-22.647-49.137-36.576-80.103-38.724-30.966-2.148-61.549 7.661-85.019 27.27C16.964 61.289 2.528 89.09.302 118.97a109.18 109.18 0 00-.204 3.48c-.18-4.393-.113-8.815.205-13.243a117.69 117.69 0 0140.283-80.5A117.411 117.411 0 01125.926.302zm56.248 371.411l.656.757 41.532-36.004-42.188 35.247z" fill="#fff" fill-opacity=".31"/><g opacity=".5"><path opacity=".5" d="M61.717 348.715a16.693 16.693 0 00-23.035-1.139 16.737 16.737 0 00-2.215 22.984l21.82 25.281 25.25-21.846a16.739 16.739 0 002.32-24.087 16.709 16.709 0 00-11.814-5.769 16.704 16.704 0 00-12.326 4.576z" fill="#5ECE7B"/><path opacity=".2" d="M40.83 350.366a16.683 16.683 0 0112.135-4.038 16.7 16.7 0 0111.43 5.737 16.689 16.689 0 0122.536.619 16.704 16.704 0 00-11.683-7.838 16.69 16.69 0 00-13.519 3.881 16.69 16.69 0 00-23.035-1.138 16.738 16.738 0 00-2.215 22.984l1.212 1.469a16.74 16.74 0 013.14-21.676z" fill="#fff"/></g><g opacity=".5"><path opacity=".5" d="M212.485 497.017a16.691 16.691 0 00-12.248-2.082 16.714 16.714 0 00-10.301 6.956 16.737 16.737 0 00-2.659 12.149 16.717 16.717 0 006.456 10.622l27.61 18.754 18.752-27.644a16.74 16.74 0 003.113-12.787 16.727 16.727 0 00-7.092-11.076 16.7 16.7 0 00-23.631 5.108z" fill="#5ECE7B"/><path opacity=".2" d="M192.731 504.025a16.724 16.724 0 0110.679-7.045 16.69 16.69 0 0112.525 2.575 16.717 16.717 0 019.949-6.883 16.693 16.693 0 0111.98 1.638 16.671 16.671 0 00-13.311-4.539 16.68 16.68 0 00-6.828 2.294 16.72 16.72 0 00-5.229 4.959 16.686 16.686 0 00-12.246-2.082 16.714 16.714 0 00-10.301 6.956 16.736 16.736 0 00-2.658 12.147 16.71 16.71 0 006.455 10.621l1.55 1.103a16.712 16.712 0 01-5.334-10.391 16.74 16.74 0 012.769-11.353z" fill="#fff"/></g><g opacity=".5"><path opacity=".5" d="M312.077 398.324a32.609 32.609 0 00-45.007-2.224 32.705 32.705 0 00-4.327 44.906l42.631 49.393 49.333-42.682a32.698 32.698 0 0010.939-35.61 32.688 32.688 0 00-6.404-11.451 32.612 32.612 0 00-47.165-2.332z" fill="#5ECE7B"/><path opacity=".2" d="M271.268 401.548a32.639 32.639 0 0111.07-6.305 32.604 32.604 0 0124.918 1.797 32.639 32.639 0 0110.053 7.828 32.616 32.616 0 0122.249-7.952 32.618 32.618 0 0121.78 9.161 32.64 32.64 0 00-9.724-10.181 32.588 32.588 0 00-27.145-4.262 32.603 32.603 0 00-12.37 6.713 32.654 32.654 0 00-10.003-8.482 32.6 32.6 0 00-37.002 3.942 32.682 32.682 0 00-11.257 23.112 32.703 32.703 0 008.929 24.11l2.368 2.869a32.708 32.708 0 01-4.821-22.32 32.691 32.691 0 0110.955-20.03z" fill="#fff"/></g></svg>